<?xml version="1.0" standalone="no"?>
<!DOCTYPE svg PUBLIC "-//W3C//DTD SVG 20010904//EN"
 "http://www.w3.org/TR/2001/REC-SVG-20010904/DTD/svg10.dtd">
<svg version="1.0" xmlns="http://www.w3.org/2000/svg"
 width="512.000000pt" height="512.000000pt" viewBox="0 0 512.000000 512.000000"
 preserveAspectRatio="xMidYMid meet">

<g transform="translate(0.000000,512.000000) scale(0.100000,-0.100000)"
fill="#000000" stroke="none">
<path d="M2395 4803 c-22 -2 -89 -13 -148 -24 -588 -109 -1100 -558 -1292
-1132 -58 -174 -76 -273 -82 -462 -6 -197 9 -292 77 -494 184 -549 716 -1365
1475 -2265 125 -148 143 -150 250 -24 906 1065 1453 1948 1560 2523 23 123 16
387 -15 530 -170 796 -873 1365 -1670 1353 -63 -1 -133 -3 -155 -5z m473 -172
c686 -148 1184 -716 1231 -1404 4 -63 4 -150 0 -193 -38 -390 -369 -1011 -963
-1809 -261 -350 -561 -718 -580 -712 -20 7 -334 396 -541 672 -614 817 -955
1451 -994 1849 -23 241 41 547 165 786 231 443 647 745 1140 825 127 21 417
13 542 -14z"/>
<path d="M2381 3590 c-40 -9 -117 -39 -170 -65 -81 -41 -110 -62 -186 -139
-145 -146 -213 -298 -222 -501 -16 -356 199 -658 547 -766 63 -20 96 -24 210
-24 114 0 147 4 210 24 280 87 476 301 537 584 21 98 13 267 -17 362 -41 132
-96 222 -195 320 -72 73 -108 100 -181 138 -165 85 -361 109 -533 67z m324
-145 c158 -40 311 -157 388 -296 225 -406 -70 -909 -533 -909 -399 0 -689 376
-590 765 53 209 229 384 440 439 73 19 221 20 295 1z"/>
</g>
</svg>
